# xmcd
#
# Track frame offsets:
# 150
# 25523
# 31152
#
# Disc length: 685 seconds
#
# Revision: 0
# Processed by: cddbd v1.4PL0 Copyright (c) Steve Scherf et al.
# Submitted via: Audion 3.0.2 (http://www.panic.com/audion/)
#
DISCID=1302ab03
DTITLE=meat beat manifesto - free piece suite
DYEAR=1900
DGENRE=
TTITLE0=fromage
TTITLE1=untitled
TTITLE2=free piece suite
EXTD=
EXTT0=
EXTT1=
EXTT2=
PLAYORDER=
